<svg width="2270" height="732" viewBox="0 0 2270 732" fill="none" xmlns="http://www.w3.org/2000/svg">
<g filter="url(#filter0_d_10997_23344)">
<path d="M324.027 651.298L696.202 492.45L720.762 457.813L733.987 417.205L749.1 362.265L720.762 297.77L696.202 254.773L324.027 417.205V651.298Z" fill="url(#paint0_linear_10997_23344)"/>
</g>
<g filter="url(#filter1_d_10997_23344)">
<path d="M448.465 81.2246L75.4183 240.073L50.801 274.709L37.5456 315.318L22.3965 370.258L50.801 434.753L75.4183 477.749L448.465 315.318V81.2246Z" fill="url(#paint1_linear_10997_23344)"/>
</g>
<path d="M691.325 246.323L326.703 0L324 246.323L691.325 424.385C728.903 436.887 706.983 476.004 691.325 494C835.624 417.092 751.45 296.838 691.325 246.323Z" fill="#4F279B"/>
<path d="M79.6752 485.178L444.297 732L447 485.178L79.6752 306.756C42.0971 294.228 64.0177 255.032 79.6752 237C-64.6243 314.063 19.5504 434.561 79.6752 485.178Z" fill="#4F279B"/>
<path d="M916.704 518V250.1H1028.42C1057.3 250.1 1079.47 256.18 1094.92 268.34C1110.63 280.5 1118.48 297.6 1118.48 319.64C1118.48 336.107 1113.54 349.913 1103.66 361.06C1093.78 372.207 1080.23 379.68 1063 383.48V377.78C1082.76 380.313 1098.09 387.28 1108.98 398.68C1119.88 410.08 1125.32 425.153 1125.32 443.9C1125.32 467.713 1117.22 486.08 1101 499C1085.04 511.667 1062.5 518 1033.36 518H916.704ZM955.084 487.22H1029.18C1047.17 487.22 1061.23 483.8 1071.36 476.96C1081.75 470.12 1086.94 458.593 1086.94 442.38C1086.94 426.167 1081.75 414.64 1071.36 407.8C1061.23 400.96 1047.17 397.54 1029.18 397.54H955.084V487.22ZM955.084 367.14H1022.34C1041.6 367.14 1056.04 363.467 1065.66 356.12C1075.29 348.773 1080.1 338.007 1080.1 323.82C1080.1 309.633 1075.29 298.867 1065.66 291.52C1056.04 284.173 1041.6 280.5 1022.34 280.5H955.084V367.14ZM1256.64 521.42C1233.59 521.42 1216.23 515.213 1204.58 502.8C1193.18 490.133 1187.48 470.753 1187.48 444.66V326.48H1225.86V443.9C1225.86 459.86 1229.15 471.64 1235.74 479.24C1242.33 486.84 1252.33 490.64 1265.76 490.64C1280.96 490.64 1293.25 485.573 1302.62 475.44C1311.99 465.307 1316.68 451.88 1316.68 435.16V326.48H1355.06V518H1317.82V476.96H1322.76C1317.44 491.147 1308.95 502.167 1297.3 510.02C1285.65 517.62 1272.09 521.42 1256.64 521.42ZM1426.48 518V238.32H1464.86V518H1426.48ZM1536.31 518V238.32H1574.69V410.08H1575.45L1659.05 326.48H1706.55L1605.47 427.18L1605.85 410.08L1714.91 518H1666.27L1575.45 430.22H1574.69V518H1536.31ZM1753.75 600.08V372.46C1753.75 365.113 1753.37 357.64 1752.61 350.04C1752.11 342.187 1751.47 334.333 1750.71 326.48H1787.95L1791.75 369.8H1787.57C1791.63 355.36 1799.73 343.96 1811.89 335.6C1824.31 327.24 1839 323.06 1855.97 323.06C1872.95 323.06 1887.77 327.113 1900.43 335.22C1913.1 343.073 1922.85 354.347 1929.69 369.04C1936.79 383.733 1940.33 401.467 1940.33 422.24C1940.33 442.76 1936.79 460.493 1929.69 475.44C1922.85 490.387 1913.1 501.787 1900.43 509.64C1887.77 517.493 1872.95 521.42 1855.97 521.42C1839.25 521.42 1824.69 517.367 1812.27 509.26C1800.11 500.9 1792.01 489.627 1787.95 475.44H1792.13V600.08H1753.75ZM1846.47 491.4C1863.19 491.4 1876.49 485.573 1886.37 473.92C1896.51 462.267 1901.57 445.04 1901.57 422.24C1901.57 399.44 1896.51 382.34 1886.37 370.94C1876.49 359.287 1863.19 353.46 1846.47 353.46C1829.75 353.46 1816.33 359.287 1806.19 370.94C1796.31 382.34 1791.37 399.44 1791.37 422.24C1791.37 445.04 1796.31 462.267 1806.19 473.92C1816.33 485.573 1829.75 491.4 1846.47 491.4ZM2089.05 521.42C2058.15 521.42 2033.83 512.68 2016.09 495.2C1998.36 477.72 1989.49 453.527 1989.49 422.62C1989.49 402.607 1993.29 385.127 2000.89 370.18C2008.75 355.233 2019.51 343.707 2033.19 335.6C2047.13 327.24 2063.21 323.06 2081.45 323.06C2099.44 323.06 2114.51 326.86 2126.67 334.46C2138.83 342.06 2148.08 352.827 2154.41 366.76C2160.75 380.44 2163.91 396.653 2163.91 415.4V427.56H2019.51V405.52H2137.69L2131.23 410.46C2131.23 391.46 2126.93 376.767 2118.31 366.38C2109.95 355.74 2097.79 350.42 2081.83 350.42C2064.1 350.42 2050.42 356.627 2040.79 369.04C2031.17 381.2 2026.35 398.047 2026.35 419.58V423.38C2026.35 445.927 2031.8 462.9 2042.69 474.3C2053.84 485.7 2069.55 491.4 2089.81 491.4C2100.96 491.4 2111.35 489.88 2120.97 486.84C2130.85 483.547 2140.23 478.227 2149.09 470.88L2161.63 497.1C2152.77 504.953 2142 511.033 2129.33 515.34C2116.67 519.393 2103.24 521.42 2089.05 521.42Z" fill="black"/>
<defs>
<filter id="filter0_d_10997_23344" x="304.027" y="238.773" width="465.072" height="436.525" filterUnits="userSpaceOnUse" color-interpolation-filters="sRGB">
<feFlood flood-opacity="0" result="BackgroundImageFix"/>
<feColorMatrix in="SourceAlpha" type="matrix" values="0 0 0 0 0 0 0 0 0 0 0 0 0 0 0 0 0 0 127 0" result="hardAlpha"/>
<feOffset dy="4"/>
<feGaussianBlur stdDeviation="10"/>
<feComposite in2="hardAlpha" operator="out"/>
<feColorMatrix type="matrix" values="0 0 0 0 0 0 0 0 0 0 0 0 0 0 0 0 0 0 0.25 0"/>
<feBlend mode="normal" in2="BackgroundImageFix" result="effect1_dropShadow_10997_23344"/>
<feBlend mode="normal" in="SourceGraphic" in2="effect1_dropShadow_10997_23344" result="shape"/>
</filter>
<filter id="filter1_d_10997_23344" x="2.39648" y="65.2246" width="466.068" height="436.525" filterUnits="userSpaceOnUse" color-interpolation-filters="sRGB">
<feFlood flood-opacity="0" result="BackgroundImageFix"/>
<feColorMatrix in="SourceAlpha" type="matrix" values="0 0 0 0 0 0 0 0 0 0 0 0 0 0 0 0 0 0 127 0" result="hardAlpha"/>
<feOffset dy="4"/>
<feGaussianBlur stdDeviation="10"/>
<feComposite in2="hardAlpha" operator="out"/>
<feColorMatrix type="matrix" values="0 0 0 0 0 0 0 0 0 0 0 0 0 0 0 0 0 0 0.25 0"/>
<feBlend mode="normal" in2="BackgroundImageFix" result="effect1_dropShadow_10997_23344"/>
<feBlend mode="normal" in="SourceGraphic" in2="effect1_dropShadow_10997_23344" result="shape"/>
</filter>
<linearGradient id="paint0_linear_10997_23344" x1="324.027" y1="610.217" x2="680.849" y2="415.129" gradientUnits="userSpaceOnUse">
<stop/>
<stop offset="0.494792" stop-color="#2D1659"/>
<stop offset="1" stop-color="#4F279B"/>
</linearGradient>
<linearGradient id="paint1_linear_10997_23344" x1="448.465" y1="122.306" x2="91.1933" y2="318.098" gradientUnits="userSpaceOnUse">
<stop/>
<stop offset="0.494792" stop-color="#331A62"/>
<stop offset="1" stop-color="#4F279B"/>
</linearGradient>
</defs>
</svg>
